<?xml version="1.0" encoding="UTF-8" standalone="no"?>
<svg
   width="210mm"
   height="210mm"
   viewBox="0 0 210 210"
   version="1.1"
   id="svg41"
   sodipodi:docname="face.svg"
   inkscape:version="1.2.2 (732a01da63, 2022-12-09, custom)"
   xmlns:inkscape="http://www.inkscape.org/namespaces/inkscape"
   xmlns:sodipodi="http://sodipodi.sourceforge.net/DTD/sodipodi-0.dtd"
   xmlns="http://www.w3.org/2000/svg"
   xmlns:svg="http://www.w3.org/2000/svg"
   xmlns:rdf="http://www.w3.org/1999/02/22-rdf-syntax-ns#"
   xmlns:cc="http://creativecommons.org/ns#"
   xmlns:dc="http://purl.org/dc/elements/1.1/">
  <sodipodi:namedview
     id="namedview30"
     pagecolor="#ffffff"
     bordercolor="#666666"
     borderopacity="1.0"
     inkscape:showpageshadow="2"
     inkscape:pageopacity="0.0"
     inkscape:pagecheckerboard="0"
     inkscape:deskcolor="#d1d1d1"
     inkscape:document-units="mm"
     showgrid="false"
     inkscape:zoom="0.78840488"
     inkscape:cx="397.00414"
     inkscape:cy="561.25984"
     inkscape:window-width="1976"
     inkscape:window-height="1088"
     inkscape:window-x="72"
     inkscape:window-y="27"
     inkscape:window-maximized="1"
     inkscape:current-layer="svg41" />
  <defs
     id="defs35" />
  <metadata
     id="metadata38">
    <rdf:RDF>
      <cc:Work
         rdf:about="">
        <dc:format>image/svg+xml</dc:format>
        <dc:type
           rdf:resource="http://purl.org/dc/dcmitype/StillImage" />
      </cc:Work>
    </rdf:RDF>
  </metadata>
  <g
     id="layer1"
     transform="translate(0,-1.5875)">
    <path
       style="fill:#000000;stroke-width:0.211667"
       d="M 98.738031,209.53935 C 66.872361,207.62987 37.371481,190.63948 19.584869,163.95283 10.252902,149.95135 4.9475674,135.45826 2.8098874,118.127 c -0.3047,-2.47034 -0.378558,-4.67979 -0.378558,-11.32417 0,-8.652468 0.14633,-10.747636 1.182661,-16.93327 C 8.0183314,63.580873 22.367862,40.106437 43.766526,24.183945 70.714632,4.1321826 105.86918,-1.4511342 137.91116,9.2317096 c 8.35196,2.7845594 18.27053,7.7019794 25.27936,12.5329994 10.61203,7.314591 19.45071,16.094249 26.74913,26.570495 5.25316,7.540447 10.18145,17.497805 13.11891,26.506058 5.55093,17.022996 6.60275,34.924538 3.07799,52.387408 -4.97381,24.64206 -18.7789,46.49917 -39.07571,61.86714 -4.94514,3.74427 -11.92702,7.97939 -17.55246,10.6471 -15.78183,7.48409 -33.21692,10.8483 -50.770349,9.79644 z m 13.265239,-0.40775 c 8.91266,-0.61457 17.01357,-2.20421 25.46976,-4.99795 3.90346,-1.28962 9.06839,-3.37104 11.68768,-4.71003 l 1.64731,-0.84212 -0.90638,-0.0106 c -1.85772,-0.0217 -2.99129,-0.94513 -3.78058,-3.07976 -0.36571,-0.98903 -0.39938,-2.25722 -0.51428,-19.3675 -0.10973,-16.33905 -0.16245,-18.47998 -0.48996,-19.89666 -1.39568,-6.03723 -5.10029,-8.46667 -12.91063,-8.46667 h -2.56556 l -0.52735,-1.00541 c -1.85515,-3.53689 -5.37895,-7.6765 -8.54498,-10.03828 -2.06701,-1.54194 -5.79227,-3.39219 -8.20147,-4.07349 -11.19082,-3.16466 -22.837254,1.5931 -29.914715,12.22066 l -1.605762,2.41123 -3.013329,0.12207 c -6.223349,0.25211 -9.472493,1.89727 -11.274102,5.70848 -1.444464,3.05569 -1.408845,2.54071 -1.577377,22.80641 -0.135353,16.27609 -0.191635,18.43144 -0.506857,19.41038 -0.866902,2.69217 -2.801485,3.58894 -5.633567,2.61142 -0.639045,-0.22058 -1.197797,-0.36516 -1.241668,-0.32129 -0.141941,0.14195 5.910217,2.96795 9.218022,4.30428 14.209805,5.74065 30.000265,8.2619 45.185795,7.21481 z m 39.99523,-11.3209 c 2.8275,-0.99611 8.84422,-4.65164 14.27098,-8.67051 3.97011,-2.94012 7.45402,-5.96622 11.32186,-9.83405 16.98237,-16.98237 27.08073,-38.24454 29.66167,-62.45277 0.44115,-4.13798 0.37278,-17.036547 -0.11164,-21.057176 C 204.82724,76.588891 198.14928,59.823825 186.83145,44.808051 181.27857,37.440837 173.79534,30.037697 166.26948,24.466144 153.31734,14.877399 138.08293,8.3861402 122.33886,5.7476517 115.83269,4.6573123 112.49344,4.3868723 105.40553,4.3762423 c -6.591918,-0.01 -9.543758,0.17848 -14.904354,0.9511094 C 73.601601,7.7631305 57.426508,14.473739 43.704698,24.741954 36.299955,30.283019 28.511217,38.077369 22.936193,45.525432 12.721255,59.172267 6.0527974,75.28481 3.6124534,92.216025 c -0.74953,5.20027 -0.952953,8.314025 -0.952953,14.586805 0,6.26327 0.201324,9.35224 0.951881,14.605 3.761325,26.32362 17.6645056,50.07306 39.0349836,66.67964 4.485285,3.48542 12.475958,8.55907 12.865888,8.16914 0.101272,-0.10128 0.83489,0.13996 1.656368,0.54465 3.653203,1.79973 5.843392,1.36753 6.879342,-1.35753 0.356542,-0.93788 0.393887,-2.33339 0.517017,-19.32007 0.14846,-20.4817 0.111326,-19.96733 1.673322,-23.17749 1.409137,-2.89602 3.685699,-4.68658 7.005088,-5.50966 0.750551,-0.18611 2.720057,-0.39295 4.376676,-0.45965 l 3.012038,-0.12128 1.566984,-2.35221 c 8.299352,-12.4582 22.782262,-16.72516 35.127302,-10.3492 4.61743,2.38482 9.26671,6.98935 11.69345,11.58092 l 0.82158,1.55448 3.39247,0.10388 c 4.95163,0.15163 7.23696,0.90344 9.43852,3.105 1.34235,1.34234 2.10359,2.76699 2.77822,5.19938 0.46365,1.67169 0.47123,1.92871 0.59291,20.10833 0.1386,20.70604 0.0764,19.91508 1.6926,21.53126 0.74708,0.74707 0.88287,0.79958 2.06787,0.79958 0.69756,0 1.68508,-0.14684 2.19449,-0.3263 z M 53.229695,141.86097 c -1.078058,-0.49243 -2.507244,-2.04243 -2.871533,-3.11428 -0.154938,-0.45587 -0.281705,-1.35273 -0.281705,-1.99302 0,-1.58836 0.40281,-2.64695 1.434989,-3.77123 1.15665,-1.25984 2.215634,-1.72281 3.940749,-1.72281 3.23487,0 5.496274,2.23948 5.501264,5.44792 0.0034,2.20181 -0.932441,3.83562 -2.815814,4.91578 -0.933106,0.53516 -1.320406,0.6293 -2.579616,0.62704 -0.979996,-0.002 -1.768335,-0.13361 -2.328334,-0.3894 z m 4.470548,-0.463 c 2.098427,-1.01584 3.331105,-3.44904 2.845835,-5.61744 -0.900007,-4.02165 -5.777585,-5.50726 -8.650176,-2.63467 -1.406422,1.40642 -1.859455,3.33439 -1.229313,5.23158 0.393796,1.1856 1.715606,2.61725 2.880606,3.11997 1.095145,0.47258 3.069043,0.42531 4.153048,-0.0994 z m 96.175577,0.4496 c -1.55439,-0.47283 -3.07371,-1.83907 -3.71747,-3.34294 -0.44823,-1.04706 -0.44859,-3.11281 -8e-4,-4.18513 0.43792,-1.04855 1.65466,-2.33291 2.74119,-2.89352 3.52603,-1.81923 7.9635,0.97261 7.9635,5.01019 0,3.53778 -3.70685,6.40898 -6.98636,5.4114 z m 2.94587,-0.55709 c 2.88642,-0.85717 4.42666,-4.43909 3.06739,-7.13338 -2.415,-4.78691 -9.61022,-3.12359 -9.61022,2.22159 0,1.46974 0.41115,2.55341 1.33364,3.51512 1.4835,1.54656 3.17621,2.00041 5.20919,1.39667 z M 26.665532,82.930752 c -0.873125,-0.844039 -2.615883,-2.505967 -3.872797,-3.693173 l -2.285296,-2.158556 0.351724,-0.536797 c 0.193448,-0.295238 0.445812,-0.536797 0.560811,-0.536797 0.189608,0 7.477008,6.789602 7.82873,7.293954 0.137234,0.196784 -0.595284,1.177037 -0.873819,1.169347 -0.06702,-0.002 -0.836228,-0.693937 -1.709353,-1.537978 z m 157.195298,0.09593 c -0.19267,-0.212897 -0.34604,-0.474834 -0.34084,-0.582083 0.005,-0.107249 1.66632,-1.909501 3.69135,-4.005001 3.13638,-3.245511 3.73657,-3.776543 4.05098,-3.584186 1.01392,0.620332 0.94402,0.734272 -2.8986,4.724594 -2.02896,2.106951 -3.79333,3.831481 -3.9208,3.832291 -0.12748,7.93e-4 -0.38942,-0.172718 -0.58209,-0.385615 z M 42.057331,72.661249 c -0.603853,-0.683006 -6.078466,-8.347059 -6.078466,-8.509397 0,-0.280204 1.095512,-0.895022 1.260438,-0.707379 0.599329,0.681884 6.147895,8.538218 6.147895,8.704937 0,0.114948 -0.22761,0.358135 -0.505801,0.540411 -0.46277,0.303221 -0.532876,0.300789 -0.824066,-0.02857 z M 170.64783,72.290576 c -0.25977,-0.181952 -0.47231,-0.426966 -0.47231,-0.544484 0,-0.166076 3.52168,-4.895955 6.16874,-8.285091 0.33389,-0.427498 0.37011,-0.430876 0.89958,-0.08395 0.30343,0.198811 0.55168,0.454772 0.55168,0.568799 0,0.225875 -6.2914,8.532773 -6.52953,8.621316 -0.0802,0.02983 -0.35839,-0.09464 -0.61816,-0.276585 z M 55.730661,58.384179 c -2.125625,-4.880179 -2.139952,-4.92434 -1.716706,-5.291667 0.234743,-0.203729 0.541538,-0.370416 0.68177,-0.370416 0.190942,0 3.455583,7.147052 4.458653,9.761008 0.110963,0.28916 -0.618652,0.822325 -1.125318,0.822325 -0.08519,0 -1.119468,-2.214562 -2.298399,-4.92125 z m 98.411109,4.027913 c -0.26193,-0.126327 -0.47127,-0.334192 -0.46519,-0.461922 0.006,-0.127733 0.99141,-2.327741 2.18961,-4.888908 2.25775,-4.825989 2.49283,-5.140732 3.36384,-4.503832 0.3487,0.254976 0.21218,0.626602 -1.90654,5.189841 -1.25517,2.703359 -2.37738,4.910543 -2.4938,4.904851 -0.11642,-0.0057 -0.42598,-0.113702 -0.68792,-0.24003 z M 77.042195,55.612468 c 0,-0.04013 -0.523875,-2.28472 -1.164167,-4.987981 -0.640291,-2.703258 -1.164166,-5.08849 -1.164166,-5.300512 0,-0.269073 0.197697,-0.414512 0.654605,-0.48157 0.367724,-0.05397 0.688571,0.0051 0.732108,0.134726 0.04263,0.126939 0.612436,2.50677 1.266243,5.288512 1.260041,5.361086 1.261382,5.408994 0.151627,5.416548 -0.261937,0.0016 -0.47625,-0.02959 -0.47625,-0.06972 z m 56.938335,-0.07893 c -0.82825,-0.304207 -0.81833,-0.41112 0.52139,-5.621361 1.24384,-4.837361 1.34727,-5.130681 1.82729,-5.18241 1.16172,-0.125193 1.15621,-0.01498 -0.27893,5.567204 -0.74302,2.890078 -1.44124,5.27685 -1.5516,5.303935 -0.11036,0.02709 -0.34353,-0.0032 -0.51815,-0.06737 z m -19.47334,-3.400642 c -0.29104,-0.0449 -0.59395,-0.145018 -0.67313,-0.222472 -0.0792,-0.07745 0.13324,-2.522075 0.47204,-5.432491 0.3388,-2.910417 0.6179,-5.315479 0.62021,-5.344583 0.002,-0.02911 0.21853,-0.05146 0.48047,-0.04968 1.09741,0.0075 1.09515,-0.0199 0.46568,5.6328 -0.32244,2.895637 -0.64248,5.317281 -0.71118,5.381431 -0.0687,0.06415 -0.36305,0.0799 -0.65409,0.03499 z m -19.98348,-0.83955 c -0.302789,-1.937758 -0.993513,-9.638617 -0.888963,-9.911064 0.117684,-0.306684 1.397463,-0.437399 1.401054,-0.1431 0.0011,0.08731 0.239191,2.432981 0.529166,5.212598 0.289976,2.77962 0.52723,5.184683 0.52723,5.344584 0,0.189727 -0.250915,0.290732 -0.722227,0.290732 -0.671418,0 -0.730957,-0.05585 -0.84626,-0.79375 z"
       id="path22" />
  </g>
</svg>
